<mxfile host="Electron" modified="2023-12-12T08:48:28.019Z" agent="Mozilla/5.0 (Windows NT 10.0; Win64; x64) AppleWebKit/537.36 (KHTML, like Gecko) draw.io/22.1.2 Chrome/114.0.5735.289 Electron/25.9.4 Safari/537.36" etag="Uh3d1RCOESuDIkS6G-k8" version="22.1.2" type="device">
  <diagram name="Page-1" id="03DCnirGTrsPGTVY4mIx">
    <mxGraphModel dx="568" dy="336" grid="1" gridSize="10" guides="1" tooltips="1" connect="1" arrows="1" fold="1" page="1" pageScale="1" pageWidth="850" pageHeight="1100" math="1" shadow="0">
      <root>
        <mxCell id="0" />
        <mxCell id="1" parent="0" />
        <mxCell id="lPuVJ6G6VuX2Ds2pDGH1-2" value="" style="edgeStyle=orthogonalEdgeStyle;rounded=0;orthogonalLoop=1;jettySize=auto;html=1;" parent="1" source="lPuVJ6G6VuX2Ds2pDGH1-3" target="lPuVJ6G6VuX2Ds2pDGH1-5" edge="1">
          <mxGeometry relative="1" as="geometry" />
        </mxCell>
        <mxCell id="lPuVJ6G6VuX2Ds2pDGH1-3" value="Début" style="ellipse;whiteSpace=wrap;html=1;" parent="1" vertex="1">
          <mxGeometry x="400" y="40" width="80" height="40" as="geometry" />
        </mxCell>
        <mxCell id="lPuVJ6G6VuX2Ds2pDGH1-4" value="" style="edgeStyle=orthogonalEdgeStyle;rounded=0;orthogonalLoop=1;jettySize=auto;html=1;" parent="1" source="lPuVJ6G6VuX2Ds2pDGH1-5" target="lPuVJ6G6VuX2Ds2pDGH1-6" edge="1">
          <mxGeometry relative="1" as="geometry" />
        </mxCell>
        <mxCell id="lPuVJ6G6VuX2Ds2pDGH1-5" value="Calcule la nouvelle valeur du cluster `i`&lt;br&gt;$$V_i =&amp;nbsp; \frac {\sum^{(nr*nc*ns)}_{j=1}{\left( u_{ij}^m&amp;nbsp;* x_j \right)}} {\sum^{(nr*nc*ns)}_{j=1}{u^m_{ij}}}$$" style="whiteSpace=wrap;html=1;spacingTop=12;" parent="1" vertex="1">
          <mxGeometry x="303.75" y="120" width="272.5" height="120" as="geometry" />
        </mxCell>
        <mxCell id="lPuVJ6G6VuX2Ds2pDGH1-6" value="Arrêt" style="ellipse;whiteSpace=wrap;html=1;" parent="1" vertex="1">
          <mxGeometry x="400" y="280" width="80" height="40" as="geometry" />
        </mxCell>
      </root>
    </mxGraphModel>
  </diagram>
</mxfile>
